<svg width="69" height="35" viewBox="0 0 69 35" fill="none" xmlns="http://www.w3.org/2000/svg">
<path d="M16.3857 26.4602C16.3857 29.1186 15.5951 31.1642 14.0139 32.597C12.4416 34.0384 10.1731 34.7591 7.20819 34.7591C5.1957 34.7591 3.59648 34.483 2.41054 33.9305V30.3572C3.95586 31.2204 5.51465 31.6519 7.08689 31.6519C8.64118 31.6519 9.85413 31.2506 10.7256 30.4478C11.606 29.6538 12.0463 28.549 12.0463 27.1334V25.9423H11.9789C10.9277 27.5737 9.36444 28.3893 7.28906 28.3893C5.41133 28.3893 3.90644 27.7463 2.77442 26.4602C1.65137 25.1742 1.08984 23.4522 1.08984 21.2944C1.08984 18.8863 1.70977 16.9659 2.94961 15.5331C4.19844 14.0916 5.83359 13.3709 7.85507 13.3709C9.68791 13.3709 11.0625 14.0571 11.9789 15.4295H12.0463V13.7205H16.3857V26.4602ZM12.0867 19.9609C12.0867 19.0114 11.7857 18.2131 11.1838 17.5657C10.5908 16.9097 9.84061 16.5817 8.93319 16.5817C7.87308 16.5817 7.033 16.9831 6.41309 17.7858C5.80215 18.5799 5.49668 19.6977 5.49668 21.139C5.49668 22.3906 5.79317 23.3789 6.38613 24.1039C6.97911 24.8203 7.76523 25.1785 8.74455 25.1785C9.73283 25.1785 10.5369 24.8116 11.1569 24.078C11.7767 23.3444 12.0867 22.3906 12.0867 21.2167V19.9609ZM20.267 28.0397V6.8457H24.6065V28.0397H20.267ZM27.8813 21.0355C27.8813 18.6705 28.5685 16.8062 29.9431 15.4424C31.3178 14.0701 33.182 13.3839 35.5359 13.3839C37.7731 13.3839 39.525 14.0442 40.7918 15.3648C42.0676 16.6767 42.7054 18.4936 42.7054 20.8154C42.7054 23.0768 42.0272 24.9023 40.6705 26.2919C39.3139 27.6815 37.4945 28.3763 35.2125 28.3763C32.9844 28.3763 31.2055 27.7031 29.8758 26.3566C28.5461 25.0102 27.8813 23.2364 27.8813 21.0355ZM30.5766 20.9578C30.5766 22.6064 31.0078 23.9054 31.8703 24.8548C32.7418 25.8042 33.9097 26.279 35.3742 26.279C36.8836 26.279 38.0336 25.8172 38.8242 24.8936C39.6149 23.9615 40.0102 22.6279 40.0102 20.8931C40.0102 19.1495 39.6149 17.8117 38.8242 16.8796C38.0336 15.9474 36.8836 15.4813 35.3742 15.4813C33.8918 15.4813 32.7194 15.969 31.8569 16.9443C31.0033 17.9196 30.5766 19.2574 30.5766 20.9578ZM61.6131 28.0397H57.9205L50.0771 18.9251C49.8076 18.6058 49.6235 18.3555 49.5246 18.1742H49.4572V28.0397H46.7619V7.98506H49.4572V17.4233H49.5246C49.6773 17.1903 49.8615 16.9443 50.0771 16.6853L57.651 7.98506H60.9797L52.2199 17.6046L61.6131 28.0397ZM63.6211 8.6712C63.6211 8.22244 63.7783 7.84698 64.0928 7.54484C64.4162 7.23415 64.8115 7.07877 65.2787 7.07877C65.7549 7.07877 66.1547 7.22984 66.4781 7.53192C66.8105 7.83399 66.9767 8.21375 66.9767 8.6712C66.9767 9.12004 66.8105 9.49549 66.4781 9.79763C66.1547 10.0911 65.7549 10.2378 65.2787 10.2378C64.8026 10.2378 64.4073 10.0911 64.0928 9.79763C63.7783 9.49549 63.6211 9.12004 63.6211 8.6712ZM63.931 28.0397V13.7205H66.5725V28.0397H63.931Z" fill="#185B98"/>
<path d="M35.3109 27.3913C38.6733 27.3913 41.3991 24.4958 41.3991 20.9239C41.3991 17.3521 38.6733 14.4565 35.3109 14.4565C31.9485 14.4565 29.2227 17.3521 29.2227 20.9239C29.2227 24.4958 31.9485 27.3913 35.3109 27.3913Z" fill="#185B98"/>
</svg>
